<svg width="48" height="49" viewBox="0 0 48 49" fill="none" xmlns="http://www.w3.org/2000/svg">
<g clip-path="url(#clip0_4_61)">
<path d="M0 0.75H48V48.75H0V0.75Z" fill="#45525B"/>
<g clip-path="url(#clip1_4_61)">
<path d="M15.7013 27.3313C16.0519 27.1736 16.4416 27.3313 16.5974 27.686C16.7532 28.0406 16.5974 28.4347 16.2468 28.5924C14.4545 29.3805 13.4026 30.3658 13.4026 31.3116C13.4026 33.2426 17.7273 35.4101 24 35.4101C30.2727 35.4101 34.6364 33.2426 34.5974 31.3116C34.5974 30.3658 33.5844 29.3805 31.8312 28.6318C31.4805 28.4741 31.3247 28.08 31.4805 27.7254C31.6364 27.3707 32.026 27.2131 32.3766 27.3707C34.7143 28.3953 36 29.7746 36 31.3116C36 34.3855 30.8571 36.75 24 36.75C17.1429 36.75 12 34.4249 12 31.3116C12 29.7746 13.3247 28.3559 15.7013 27.3313ZM24 12.75C28.3247 12.75 31.8312 16.2968 31.8312 20.6712C31.8312 23.9421 27.7403 29.0653 25.2857 31.8239C24.974 32.218 24.5065 32.415 24 32.415C23.4935 32.415 23.026 32.1786 22.7143 31.8239C20.2597 29.0653 16.1688 23.9421 16.1688 20.6712C16.1688 16.2968 19.6753 12.75 24 12.75ZM24 14.1293C20.4545 14.1293 17.5325 17.0456 17.5325 20.6712C17.5325 22.681 19.8701 26.5037 23.7273 30.8781C23.8052 30.9963 23.961 30.9963 24 30.9963C24.039 30.9963 24.1558 30.9963 24.2727 30.8781C28.1688 26.5037 30.4675 22.681 30.4675 20.6712C30.4675 17.0456 27.5455 14.1293 24 14.1293Z" fill="white"/>
</g>
</g>
<defs>
<clipPath id="clip0_4_61">
<rect width="48" height="48" fill="white" transform="translate(0 0.75)"/>
</clipPath>
<clipPath id="clip1_4_61">
<rect width="24" height="24" fill="white" transform="translate(12 12.75)"/>
</clipPath>
</defs>
</svg>
