<svg width="48" height="49" viewBox="0 0 48 49" fill="none" xmlns="http://www.w3.org/2000/svg">
<g clip-path="url(#clip0_4_83)">
<path d="M0 0.75H48V48.75H0V0.75Z" fill="#45525B"/>
<g clip-path="url(#clip1_4_83)">
<path d="M30.8017 27.7744C30.8017 26.5646 29.8102 25.589 28.5807 25.589H28.3031L29.2153 18.2915V18.2524C29.2946 16.8085 28.779 15.4427 27.7479 14.389C26.7167 13.3354 25.3683 12.75 23.9009 12.75C22.4334 12.75 21.0453 13.3354 20.0538 14.389C19.0227 15.4427 18.5071 16.8085 18.5864 18.2524V18.2915L19.4986 25.589H19.221C17.9915 25.589 17 26.5646 17 27.7744V29.4524C17 30.0378 17.238 30.5841 17.6346 30.9744V36.0476C17.6346 36.4378 17.9518 36.75 18.3484 36.75C18.745 36.75 19.0623 36.4378 19.0623 36.0476V31.6378C19.1416 31.6378 19.221 31.6378 19.2606 31.6378H20.9263V34.9549C20.9263 35.3451 21.2436 35.6573 21.6402 35.6573C22.0368 35.6573 22.3541 35.3451 22.3541 34.9549V31.6378H25.6459V34.9549C25.6459 35.3451 25.9632 35.6573 26.3598 35.6573C26.7564 35.6573 27.0737 35.3451 27.0737 34.9549V31.6378H28.7394C28.8187 31.6378 28.898 31.6378 28.9377 31.6378V36.0476C28.9377 36.4378 29.255 36.75 29.6516 36.75C30.0482 36.75 30.3654 36.4378 30.3654 36.0476V31.0134C30.762 30.6232 31 30.0768 31 29.4915V27.7744H30.8017ZM19.8952 18.1354C19.8555 17.0817 20.2521 16.0671 20.966 15.2866C21.7195 14.5061 22.7507 14.0768 23.8215 14.0768C24.932 14.0768 25.9235 14.5061 26.6771 15.2866C27.4306 16.0671 27.8272 17.0817 27.7479 18.1354L26.8357 25.55H20.847L19.8952 18.1354ZM19.1813 30.311C19.0227 30.311 18.864 30.272 18.745 30.1939C18.7054 30.1549 18.6657 30.1549 18.6261 30.1159C18.4278 29.9598 18.3088 29.7256 18.3088 29.4915V27.8134C18.3088 27.3451 18.7054 26.9939 19.1416 26.9939H20.1728H27.4703H28.5014C28.9773 26.9939 29.3343 27.3841 29.3343 27.8134V29.4915C29.3343 29.7646 29.2153 29.9598 29.017 30.1159C28.9773 30.1549 28.9377 30.1549 28.898 30.1939C28.779 30.272 28.6204 30.311 28.4618 30.311H19.1813Z" fill="white"/>
</g>
</g>
<defs>
<clipPath id="clip0_4_83">
<rect width="48" height="48" fill="white" transform="translate(0 0.75)"/>
</clipPath>
<clipPath id="clip1_4_83">
<rect width="24" height="24" fill="white" transform="translate(12 12.75)"/>
</clipPath>
</defs>
</svg>
