<svg width="48" height="49" viewBox="0 0 48 49" fill="none" xmlns="http://www.w3.org/2000/svg">
<g clip-path="url(#clip0_4_72)">
<path d="M0 0.75H48V48.75H0V0.75Z" fill="#45525B"/>
<path d="M35.8829 22.7801L35.922 22.7418C35.922 22.7418 35.922 22.7036 35.961 22.6653C35.961 22.627 35.961 22.627 36 22.5888V22.5505C36 22.5123 36 22.5123 36 22.474V22.4358V22.3975C36 22.3975 36 22.3975 36 22.3593C35.1805 17.7309 30.0293 14.25 23.9805 14.25C17.9317 14.25 12.7805 17.7309 12 22.321C12 22.321 12 22.321 12 22.3593V22.3975V22.4358C12 22.474 12 22.474 12 22.5123C12 22.5505 12 22.5505 12 22.5888C12 22.627 12 22.627 12.039 22.6653C12.039 22.7036 12.039 22.7036 12.078 22.7418C12.078 22.7801 12.1171 22.7801 12.1171 22.8183L12.1561 22.8566L12.1951 22.8948L12.2341 22.9331L12.2732 22.9713L12.3122 23.0096C12.3122 23.0096 12.3512 23.0478 12.3902 23.0478C12.3902 23.0478 12.4293 23.0861 12.4683 23.0861C12.4683 23.0861 12.5073 23.0861 12.5463 23.0861C12.5854 23.0861 12.5854 23.0861 12.6244 23.0861H12.6634H12.7024H15.122V33.8347H14.4976C14.1073 33.8347 13.7951 34.1407 13.7951 34.5232C13.7951 34.9057 14.1073 35.2117 14.4976 35.2117H21.1317C21.522 35.2117 21.8341 34.9057 21.8341 34.5232C21.8341 34.1407 21.522 33.8347 21.1317 33.8347H20.5463V23.1243H27.4927V33.873H26.8293C26.439 33.873 26.1268 34.179 26.1268 34.5615C26.1268 34.944 26.439 35.25 26.8293 35.25H33.4634C33.8537 35.25 34.1659 34.944 34.1659 34.5615C34.1659 34.179 33.8537 33.873 33.4634 33.873H32.9561V23.1243H35.2976C35.3366 23.1243 35.3756 23.1243 35.4146 23.1243C35.4537 23.1243 35.4537 23.1243 35.4927 23.1243C35.5317 23.1243 35.5317 23.1243 35.5707 23.1243C35.6098 23.1243 35.6098 23.1243 35.6488 23.0861C35.6878 23.0861 35.6878 23.0478 35.7268 23.0478L35.7659 23.0096L35.8049 22.9713L35.8439 22.9331L35.8829 22.8948C35.8829 22.8183 35.8829 22.8183 35.8829 22.7801ZM23.9805 15.5888C29.0146 15.5888 33.3463 18.2281 34.439 21.8238H13.522C14.6146 18.1899 18.9463 15.5888 23.9805 15.5888ZM19.1805 33.873H16.4488V23.1243H19.1805V33.873ZM31.5902 33.873H28.8585V23.1243H31.5902V33.873Z" fill="white"/>
</g>
<defs>
<clipPath id="clip0_4_72">
<rect width="48" height="48" fill="white" transform="translate(0 0.75)"/>
</clipPath>
</defs>
</svg>
